<svg width="20" height="23" viewBox="0 0 20 23" fill="none" xmlns="http://www.w3.org/2000/svg">
<g clip-path="url(#clip0_9_2038)">
<path d="M9.98193 22.55C10.3611 22.55 10.7248 22.3994 10.993 22.1313C11.2611 21.8631 11.4118 21.4995 11.4118 21.1203V5.44186L16.8311 11.2535C16.9573 11.3981 17.1113 11.5158 17.284 11.5996C17.4567 11.6834 17.6445 11.7316 17.8362 11.7413C18.0278 11.751 18.2195 11.722 18.3998 11.656C18.58 11.59 18.7451 11.4885 18.8853 11.3573C19.0254 11.2262 19.1377 11.0682 19.2155 10.8927C19.2933 10.7173 19.3349 10.528 19.338 10.3361C19.341 10.1442 19.3054 9.95363 19.2332 9.7758C19.161 9.59797 19.0538 9.43649 18.9178 9.30099L11.0288 0.834895C10.895 0.691547 10.7332 0.577245 10.5533 0.499094C10.3735 0.420944 10.1795 0.380615 9.98343 0.380615C9.78735 0.380615 9.59336 0.420944 9.41352 0.499094C9.23368 0.577245 9.07184 0.691547 8.93806 0.834895L1.04104 9.30099C0.782221 9.5794 0.644613 9.94922 0.658489 10.3291C0.672365 10.7089 0.836588 11.0677 1.11503 11.3265C1.39347 11.5853 1.76333 11.7229 2.14323 11.709C2.52313 11.6952 2.88196 11.531 3.14078 11.2525L8.55211 5.44186V21.1213C8.55238 21.5003 8.70313 21.8637 8.97125 22.1316C9.23936 22.3995 9.60289 22.55 9.98193 22.55Z" fill="#E76F51"/>
</g>
<defs>
<clipPath id="clip0_9_2038">
<rect width="18.68" height="22.17" fill="white" transform="translate(0.659912 0.380005)"/>
</clipPath>
</defs>
</svg>
